<svg xmlns="http://www.w3.org/2000/svg"
width="512"
height="512">
  <line
  x1="5" y1="256"
  x2="40" y2="256"
  stroke="#b7b7b7"
  stroke-width="4"
  transform="rotate(0 256 256)" />
  
  <line
  x1="30" y1="256"
  x2="40" y2="256"
  stroke="#b7b7b7"
  stroke-width="4"
  transform="rotate(5 256 256)" />
  
  <line
  x1="15" y1="256"
  x2="40" y2="256"
  stroke="#b7b7b7"
  stroke-width="4"
  transform="rotate(10 256 256)" />
  
  <line
  x1="30" y1="256"
  x2="40" y2="256"
  stroke="#b7b7b7"
  stroke-width="4"
  transform="rotate(15 256 256)" />
  
  <line
  x1="15" y1="256"
  x2="40" y2="256"
  stroke="#b7b7b7"
  stroke-width="4"
  transform="rotate(20 256 256)" />
  
  <line
  x1="30" y1="256"
  x2="40" y2="256"
  stroke="#b7b7b7"
  stroke-width="4"
  transform="rotate(25 256 256)" />
  
  <line
  x1="15" y1="256"
  x2="40" y2="256"
  stroke="#b7b7b7"
  stroke-width="4"
  transform="rotate(30 256 256)" />
  
  <line
  x1="30" y1="256"
  x2="40" y2="256"
  stroke="#b7b7b7"
  stroke-width="4"
  transform="rotate(35 256 256)" />
  
  <line
  x1="15" y1="256"
  x2="40" y2="256"
  stroke="#b7b7b7"
  stroke-width="4"
  transform="rotate(40 256 256)" />
  
  <line
  x1="5" y1="256"
  x2="40" y2="256"
  stroke="#b7b7b7"
  stroke-width="4"
  transform="rotate(45 256 256)" />
  
  <line
  x1="15" y1="256"
  x2="40" y2="256"
  stroke="#b7b7b7"
  stroke-width="4"
  transform="rotate(50 256 256)" />
  
  <line
  x1="30" y1="256"
  x2="40" y2="256"
  stroke="#b7b7b7"
  stroke-width="4"
  transform="rotate(55 256 256)" />
  
  <line
  x1="15" y1="256"
  x2="40" y2="256"
  stroke="#b7b7b7"
  stroke-width="4"
  transform="rotate(60 256 256)" />
  
  <line
  x1="30" y1="256"
  x2="40" y2="256"
  stroke="#b7b7b7"
  stroke-width="4"
  transform="rotate(65 256 256)" />
  
  <line
  x1="15" y1="256"
  x2="40" y2="256"
  stroke="#b7b7b7"
  stroke-width="4"
  transform="rotate(70 256 256)" />
  
  <line
  x1="30" y1="256"
  x2="40" y2="256"
  stroke="#b7b7b7"
  stroke-width="4"
  transform="rotate(75 256 256)" />
  
  <line
  x1="15" y1="256"
  x2="40" y2="256"
  stroke="#b7b7b7"
  stroke-width="4"
  transform="rotate(80 256 256)" />
  
  <line
  x1="30" y1="256"
  x2="40" y2="256"
  stroke="#b7b7b7"
  stroke-width="4"
  transform="rotate(85 256 256)" />
  
  <line
  x1="5" y1="256"
  x2="40" y2="256"
  stroke="#b7b7b7"
  stroke-width="4"
  transform="rotate(90 256 256)" />
  
  <line
  x1="30" y1="256"
  x2="40" y2="256"
  stroke="#b7b7b7"
  stroke-width="4"
  transform="rotate(95 256 256)" />
  
  <line
  x1="15" y1="256"
  x2="40" y2="256"
  stroke="#b7b7b7"
  stroke-width="4"
  transform="rotate(100 256 256)" />
  
  <line
  x1="30" y1="256"
  x2="40" y2="256"
  stroke="#b7b7b7"
  stroke-width="4"
  transform="rotate(105 256 256)" />
  
  <line
  x1="15" y1="256"
  x2="40" y2="256"
  stroke="#b7b7b7"
  stroke-width="4"
  transform="rotate(110 256 256)" />
  
  <line
  x1="30" y1="256"
  x2="40" y2="256"
  stroke="#b7b7b7"
  stroke-width="4"
  transform="rotate(115 256 256)" />
  
  <line
  x1="15" y1="256"
  x2="40" y2="256"
  stroke="#b7b7b7"
  stroke-width="4"
  transform="rotate(120 256 256)" />
  
  <line
  x1="30" y1="256"
  x2="40" y2="256"
  stroke="#b7b7b7"
  stroke-width="4"
  transform="rotate(125 256 256)" />
  
  <line
  x1="15" y1="256"
  x2="40" y2="256"
  stroke="#b7b7b7"
  stroke-width="4"
  transform="rotate(130 256 256)" />
  
  <line
  x1="5" y1="256"
  x2="40" y2="256"
  stroke="#b7b7b7"
  stroke-width="4"
  transform="rotate(135 256 256)" />
  
  <line
  x1="15" y1="256"
  x2="40" y2="256"
  stroke="#b7b7b7"
  stroke-width="4"
  transform="rotate(140 256 256)" />
  
  <line
  x1="30" y1="256"
  x2="40" y2="256"
  stroke="#b7b7b7"
  stroke-width="4"
  transform="rotate(145 256 256)" />
  
  <line
  x1="15" y1="256"
  x2="40" y2="256"
  stroke="#b7b7b7"
  stroke-width="4"
  transform="rotate(150 256 256)" />
  
  <line
  x1="30" y1="256"
  x2="40" y2="256"
  stroke="#b7b7b7"
  stroke-width="4"
  transform="rotate(155 256 256)" />
  
  <line
  x1="15" y1="256"
  x2="40" y2="256"
  stroke="#b7b7b7"
  stroke-width="4"
  transform="rotate(160 256 256)" />
  
  <line
  x1="30" y1="256"
  x2="40" y2="256"
  stroke="#b7b7b7"
  stroke-width="4"
  transform="rotate(165 256 256)" />
  
  <line
  x1="15" y1="256"
  x2="40" y2="256"
  stroke="#b7b7b7"
  stroke-width="4"
  transform="rotate(170 256 256)" />
  
  <line
  x1="30" y1="256"
  x2="40" y2="256"
  stroke="#b7b7b7"
  stroke-width="4"
  transform="rotate(175 256 256)" />
  
  <line
  x1="5" y1="256"
  x2="40" y2="256"
  stroke="#b7b7b7"
  stroke-width="4"
  transform="rotate(180 256 256)" />
  
  <line
  x1="30" y1="256"
  x2="40" y2="256"
  stroke="#b7b7b7"
  stroke-width="4"
  transform="rotate(185 256 256)" />
  
  <line
  x1="15" y1="256"
  x2="40" y2="256"
  stroke="#b7b7b7"
  stroke-width="4"
  transform="rotate(190 256 256)" />
  
  <line
  x1="30" y1="256"
  x2="40" y2="256"
  stroke="#b7b7b7"
  stroke-width="4"
  transform="rotate(195 256 256)" />
  
  <line
  x1="15" y1="256"
  x2="40" y2="256"
  stroke="#b7b7b7"
  stroke-width="4"
  transform="rotate(200 256 256)" />
  
  <line
  x1="30" y1="256"
  x2="40" y2="256"
  stroke="#b7b7b7"
  stroke-width="4"
  transform="rotate(205 256 256)" />
  
  <line
  x1="15" y1="256"
  x2="40" y2="256"
  stroke="#b7b7b7"
  stroke-width="4"
  transform="rotate(210 256 256)" />
  
  <line
  x1="30" y1="256"
  x2="40" y2="256"
  stroke="#b7b7b7"
  stroke-width="4"
  transform="rotate(215 256 256)" />
  
  <line
  x1="15" y1="256"
  x2="40" y2="256"
  stroke="#b7b7b7"
  stroke-width="4"
  transform="rotate(220 256 256)" />
  
  <line
  x1="5" y1="256"
  x2="40" y2="256"
  stroke="#b7b7b7"
  stroke-width="4"
  transform="rotate(225 256 256)" />
  
  <line
  x1="15" y1="256"
  x2="40" y2="256"
  stroke="#b7b7b7"
  stroke-width="4"
  transform="rotate(230 256 256)" />
  
  <line
  x1="30" y1="256"
  x2="40" y2="256"
  stroke="#b7b7b7"
  stroke-width="4"
  transform="rotate(235 256 256)" />
  
  <line
  x1="15" y1="256"
  x2="40" y2="256"
  stroke="#b7b7b7"
  stroke-width="4"
  transform="rotate(240 256 256)" />
  
  <line
  x1="30" y1="256"
  x2="40" y2="256"
  stroke="#b7b7b7"
  stroke-width="4"
  transform="rotate(245 256 256)" />
  
  <line
  x1="15" y1="256"
  x2="40" y2="256"
  stroke="#b7b7b7"
  stroke-width="4"
  transform="rotate(250 256 256)" />
  
  <line
  x1="30" y1="256"
  x2="40" y2="256"
  stroke="#b7b7b7"
  stroke-width="4"
  transform="rotate(255 256 256)" />
  
  <line
  x1="15" y1="256"
  x2="40" y2="256"
  stroke="#b7b7b7"
  stroke-width="4"
  transform="rotate(260 256 256)" />
  
  <line
  x1="30" y1="256"
  x2="40" y2="256"
  stroke="#b7b7b7"
  stroke-width="4"
  transform="rotate(265 256 256)" />
  
  <line
  x1="5" y1="256"
  x2="40" y2="256"
  stroke="#b7b7b7"
  stroke-width="4"
  transform="rotate(270 256 256)" />
  
  <line
  x1="30" y1="256"
  x2="40" y2="256"
  stroke="#b7b7b7"
  stroke-width="4"
  transform="rotate(275 256 256)" />
  
  <line
  x1="15" y1="256"
  x2="40" y2="256"
  stroke="#b7b7b7"
  stroke-width="4"
  transform="rotate(280 256 256)" />
  
  <line
  x1="30" y1="256"
  x2="40" y2="256"
  stroke="#b7b7b7"
  stroke-width="4"
  transform="rotate(285 256 256)" />
  
  <line
  x1="15" y1="256"
  x2="40" y2="256"
  stroke="#b7b7b7"
  stroke-width="4"
  transform="rotate(290 256 256)" />
  
  <line
  x1="30" y1="256"
  x2="40" y2="256"
  stroke="#b7b7b7"
  stroke-width="4"
  transform="rotate(295 256 256)" />
  
  <line
  x1="15" y1="256"
  x2="40" y2="256"
  stroke="#b7b7b7"
  stroke-width="4"
  transform="rotate(300 256 256)" />
  
  <line
  x1="30" y1="256"
  x2="40" y2="256"
  stroke="#b7b7b7"
  stroke-width="4"
  transform="rotate(305 256 256)" />
  
  <line
  x1="15" y1="256"
  x2="40" y2="256"
  stroke="#b7b7b7"
  stroke-width="4"
  transform="rotate(310 256 256)" />
  
  <line
  x1="5" y1="256"
  x2="40" y2="256"
  stroke="#b7b7b7"
  stroke-width="4"
  transform="rotate(315 256 256)" />
  
  <line
  x1="15" y1="256"
  x2="40" y2="256"
  stroke="#b7b7b7"
  stroke-width="4"
  transform="rotate(320 256 256)" />
  
  <line
  x1="30" y1="256"
  x2="40" y2="256"
  stroke="#b7b7b7"
  stroke-width="4"
  transform="rotate(325 256 256)" />
  
  <line
  x1="15" y1="256"
  x2="40" y2="256"
  stroke="#b7b7b7"
  stroke-width="4"
  transform="rotate(330 256 256)" />
  
  <line
  x1="30" y1="256"
  x2="40" y2="256"
  stroke="#b7b7b7"
  stroke-width="4"
  transform="rotate(335 256 256)" />
  
  <line
  x1="15" y1="256"
  x2="40" y2="256"
  stroke="#b7b7b7"
  stroke-width="4"
  transform="rotate(340 256 256)" />
  
  <line
  x1="30" y1="256"
  x2="40" y2="256"
  stroke="#b7b7b7"
  stroke-width="4"
  transform="rotate(345 256 256)" />
  
  <line
  x1="15" y1="256"
  x2="40" y2="256"
  stroke="#b7b7b7"
  stroke-width="4"
  transform="rotate(350 256 256)" />
  
  <line
  x1="30" y1="256"
  x2="40" y2="256"
  stroke="#b7b7b7"
  stroke-width="4"
  transform="rotate(355 256 256)" />
  
</svg>
